<?xml version="1.0" encoding="iso-8859-1"?>
<!-- Uploaded to: SVG Repo, www.svgrepo.com, Generator: SVG Repo Mixer Tools -->
<!DOCTYPE svg PUBLIC "-//W3C//DTD SVG 1.1//EN" "http://www.w3.org/Graphics/SVG/1.1/DTD/svg11.dtd">
<svg fill="#666c6f" version="1.1" id="Capa_1" xmlns="http://www.w3.org/2000/svg" xmlns:xlink="http://www.w3.org/1999/xlink" 
	 width="800px" height="800px" viewBox="0 0 256.321 256.321"
	 xml:space="preserve">
<g>
	<path d="M216.113,0h-81.807v150.209l43.82-43.816c2.401-2.405,6.293-2.405,8.695,0c2.401,2.405,2.401,6.29,0,8.695l-54.311,54.307
		c-0.574,0.577-1.249,1.021-2,1.334c-0.757,0.312-1.549,0.474-2.354,0.474c-0.802,0-1.601-0.162-2.351-0.474
		c-0.75-0.312-1.432-0.757-1.997-1.334l-54.308-54.307c-2.405-2.405-2.405-6.29,0-8.695c2.402-2.405,6.29-2.405,8.695,0
		l43.811,43.816V0h-81.8C18.042,0,0,18.042,0,40.205v175.908c0,22.163,18.042,40.208,40.208,40.208h175.905
		c22.164,0,40.208-18.045,40.208-40.209V40.205C256.321,18.033,238.283,0,216.113,0z"/>
</g>
</svg>